<?xml version="1.0" encoding="UTF-8"?>
<svg version="1.1" xmlns="http://www.w3.org/2000/svg" width="360" height="360">
<path d="M0 0 C6.23305419 4.11627324 12.38837955 8.3308064 18.5 12.625 C19.80094604 13.53741455 19.80094604 13.53741455 21.12817383 14.46826172 C28.04768932 19.32399553 34.95711772 24.19399017 41.859375 29.07421875 C44.63804944 31.03883866 47.4194242 32.99954007 50.203125 34.95703125 C58.26549507 40.62982691 66.28326686 46.35927772 74.26708984 52.14208984 C81.43747485 57.32973715 88.66491315 62.43418649 95.90429688 67.52490234 C97.98486243 68.98934516 100.06316142 70.45694191 102.140625 71.92578125 C109.83170231 77.36358858 117.53457447 82.78428671 125.25 88.1875 C126.02899658 88.73325684 126.80799316 89.27901367 127.6105957 89.84130859 C132.33608841 93.14792225 137.0726329 96.43825278 141.81542969 99.7199707 C142.41269867 100.13334938 143.00996765 100.54672806 143.62533569 100.97263336 C145.08350208 101.98183511 146.5417433 102.99092875 148 104 C147.99476318 103.15919388 147.98952637 102.31838776 147.98413086 101.45210266 C147.941817 93.52130128 147.93781288 85.59159936 147.97665405 77.66076374 C147.99527643 73.58343781 147.99917547 69.50721314 147.96923828 65.42993164 C147.94088057 61.49356457 147.95144437 57.55903545 147.98880005 53.62276268 C147.99623664 52.12250333 147.98973664 50.622107 147.96896362 49.12197304 C147.82008072 37.40576893 147.82008072 37.40576893 150.6468811 34.03788757 C152.72547007 32.70008036 154.67498172 31.82531558 157 31 C157.9698584 30.50266357 158.9397168 30.00532715 159.93896484 29.49291992 C160.85371582 29.07631104 161.7684668 28.65970215 162.7109375 28.23046875 C163.77513916 27.74151123 164.83934082 27.25255371 165.93579102 26.7487793 C167.07072998 26.23355713 168.20566895 25.71833496 169.375 25.1875 C171.85082135 24.05328471 174.32613287 22.91801656 176.80078125 21.78125 C177.44955734 21.48381393 178.09833344 21.18637787 178.76676941 20.87992859 C183.96207791 18.49261239 189.13048106 16.05112322 194.29296875 13.59375 C195.85041968 12.85391517 197.40787409 12.11408765 198.96533203 11.37426758 C201.25831468 10.28468717 203.55035672 9.19331876 205.83978271 8.09628296 C207.97542152 7.07337445 210.11429207 6.05752946 212.25390625 5.04296875 C213.21299141 4.57987305 213.21299141 4.57987305 214.19145203 4.10742188 C217.00159155 2.78179267 218.84891788 2 222 2 C222 77.24 222 152.48 222 230 C218.39227523 228.19613762 216.52365948 226.7942051 213.75 224 C212.69039063 222.948125 212.69039063 222.948125 211.609375 221.875 C210 220 210 220 210 218 C209.01 217.67 208.02 217.34 207 217 C205.47460937 215.45117187 205.47460937 215.45117187 203.84375 213.46875 C199.9617335 208.89351626 195.77859757 204.70205736 191.5 200.5 C187.40830669 196.48150336 183.35737503 192.48310969 179.625 188.125 C175.19466872 182.97568925 170.33455442 178.26617317 165.5 173.5 C155.33915761 163.48287532 155.33915761 163.48287532 151.53125 159.03125 C146.99066164 153.72942959 141.96684481 148.89693613 137 144 C131.40142087 138.48022124 125.877637 132.96348377 120.76513672 126.98339844 C116.45637042 122.14184692 111.69669618 117.70430259 107.05664062 113.18359375 C106.27611328 112.41402344 105.49558594 111.64445312 104.69140625 110.8515625 C103.98185791 110.15885254 103.27230957 109.46614258 102.54125977 108.75244141 C101 107 101 107 101 105 C100.34 105 99.68 105 99 105 C97.80078125 103.77734375 97.80078125 103.77734375 96.3125 101.9375 C92.02718507 96.87631753 87.32672638 92.27093812 82.5949707 87.63256836 C79.5104467 84.58898404 76.53627922 81.51257583 73.71875 78.21875 C70.2324609 74.21222948 66.56054806 70.44746425 62.78125 66.71875 C62.11967896 66.06096558 61.45810791 65.40318115 60.77648926 64.72546387 C58.68677265 62.64782726 56.59382685 60.57349373 54.5 58.5 C51.736583 55.7634185 48.97666278 53.02337737 46.21875 50.28125 C45.59875122 49.66954956 44.97875244 49.05784912 44.33996582 48.4276123 C40.59714559 44.70548319 37.0812719 40.84985434 33.63098145 36.85583496 C31.43791484 34.36042357 29.11491009 32.01976563 26.75 29.6875 C26.05729004 29.00046997 26.05729004 29.00046997 25.35058594 28.29956055 C23.90287278 26.86383825 22.45191143 25.43147568 21 24 C15.29536453 18.37565766 9.62171788 12.7736271 4.4375 6.65625 C3.01215803 4.95880776 3.01215803 4.95880776 1.3125 3.40625 C0 2 0 2 0 0 Z " fill="#262626" transform="translate(70,56)"/>
<path d="M0 0 C3.34470214 1.67235107 4.91507801 2.66628296 7.42578125 5.1953125 C8.05806641 5.82953125 8.69035156 6.46375 9.34179688 7.1171875 C9.99212891 7.77976562 10.64246094 8.44234375 11.3125 9.125 C11.95123047 9.764375 12.58996094 10.40375 13.24804688 11.0625 C16.43934778 14.28290092 19.52038805 17.55765415 22.48046875 20.9921875 C26.12074412 25.2048655 30.02699568 29.10310687 34 33 C38.66943156 37.57997885 43.14095888 42.23097153 47.41015625 47.1875 C49.50099282 49.57115643 51.72887685 51.78864325 54 54 C56.7996689 56.7259934 59.44513672 59.50093457 61.97265625 62.4765625 C65.27658757 66.29009993 68.78798412 69.85064417 72.37109375 73.3984375 C72.94211823 73.96395325 73.5131427 74.52946899 74.10147095 75.11212158 C76.48917626 77.47206529 78.88056845 79.82819986 81.27612305 82.18017578 C83.04125453 83.91529364 84.80026685 85.65642841 86.55859375 87.3984375 C87.10535263 87.93173676 87.65211151 88.46503601 88.21543884 89.01449585 C89.51528518 90.30552223 90.76321543 91.64844033 92 93 C92 93.66 92 94.32 92 95 C92.66 95 93.32 95 94 95 C95.37719727 96.40283203 95.37719727 96.40283203 97.00390625 98.3828125 C102.15772599 104.44660145 107.89621231 109.9076714 113.58789062 115.4609375 C114.41353516 116.275625 115.23917969 117.0903125 116.08984375 117.9296875 C116.84128662 118.66429199 117.59272949 119.39889648 118.36694336 120.15576172 C120 122 120 122 120 124 C121.485 124.495 121.485 124.495 123 125 C124.3671875 126.390625 124.3671875 126.390625 125.875 128.25 C129.12611592 132.08167233 132.56189906 135.65025688 136.125 139.1875 C136.67929688 139.73849365 137.23359375 140.2894873 137.8046875 140.85717773 C139.53451405 142.5734283 141.26681149 144.28714498 143 146 C155.81254839 158.66223358 155.81254839 158.66223358 161.1171875 164.89453125 C165.66880003 169.98440502 170.64328498 174.70273763 175.5 179.5 C187.92271038 191.7706399 187.92271038 191.7706399 193.28759766 198.06933594 C197.57102554 202.89872682 202.32196449 207.3138781 206.94335938 211.81640625 C207.72388672 212.58597656 208.50441406 213.35554687 209.30859375 214.1484375 C210.01814209 214.84114746 210.72769043 215.53385742 211.45874023 216.24755859 C213 218 213 218 213 220 C213.66 220 214.32 220 215 220 C216.7265625 221.75 216.7265625 221.75 218.625 224 C219.25664062 224.7425 219.88828125 225.485 220.5390625 226.25 C221.02117187 226.8275 221.50328125 227.405 222 228 C221.67 228.66 221.34 229.32 221 230 C220.030625 229.26136719 219.06125 228.52273438 218.0625 227.76171875 C208.55746349 220.55509014 198.87124137 213.69298244 189 207 C179.83112267 200.76379832 170.75535922 194.4213066 161.78173828 187.90673828 C156.7156439 184.23069766 151.62097913 180.59913665 146.5 177 C140.54919618 172.81704299 134.63881952 168.58225084 128.75 164.3125 C122.233735 159.59235409 115.66658174 154.95905938 109.03564453 150.40087891 C104.43433502 147.23437447 99.8413004 144.05599344 95.25 140.875 C94.27909424 140.20557373 93.30818848 139.53614746 92.30786133 138.84643555 C87.01572882 135.17729006 81.86820534 131.40968524 76.86621094 127.35205078 C74.93757002 125.81224223 74.93757002 125.81224223 72 125 C72 148.1 72 171.2 72 195 C67.05 197.31 62.1 199.62 57 202 C52.68404207 204.07661889 48.37173856 206.15960792 44.0625 208.25 C34.96363928 212.63941304 25.84985296 216.99450629 16.6875 221.25 C15.6982251 221.71567383 14.7089502 222.18134766 13.68969727 222.66113281 C12.76471436 223.08749023 11.83973145 223.51384766 10.88671875 223.953125 C9.68341919 224.51241699 9.68341919 224.51241699 8.45581055 225.08300781 C6 226 6 226 0 227 C0 152.09 0 77.18 0 0 Z " fill="#EA121C" transform="translate(68,74)"/>
<path d="M0 0 C2.04119788 1.61594832 4.04072937 3.2856382 6 5 C6 5.66 6 6.32 6 7 C6.99 7.33 7.98 7.66 9 8 C10.3671875 9.390625 10.3671875 9.390625 11.875 11.25 C15.12611592 15.08167233 18.56189906 18.65025688 22.125 22.1875 C22.95644531 23.01399048 22.95644531 23.01399048 23.8046875 23.85717773 C25.53451405 25.5734283 27.26681149 27.28714498 29 29 C41.81254839 41.66223358 41.81254839 41.66223358 47.1171875 47.89453125 C51.66880003 52.98440502 56.64328498 57.70273763 61.5 62.5 C73.92271038 74.7706399 73.92271038 74.7706399 79.28759766 81.06933594 C83.57102554 85.89872682 88.32196449 90.3138781 92.94335938 94.81640625 C93.72388672 95.58597656 94.50441406 96.35554688 95.30859375 97.1484375 C96.01814209 97.84114746 96.72769043 98.53385742 97.45874023 99.24755859 C99 101 99 101 99 103 C99.66 103 100.32 103 101 103 C102.7265625 104.75 102.7265625 104.75 104.625 107 C105.25664062 107.7425 105.88828125 108.485 106.5390625 109.25 C107.02117187 109.8275 107.50328125 110.405 108 111 C107.67 111.66 107.34 112.32 107 113 C105.5459375 111.89205078 105.5459375 111.89205078 104.0625 110.76171875 C97.13725513 105.51106371 90.17352833 100.34513973 83 95.4375 C82.35071533 94.99140381 81.70143066 94.54530762 81.0324707 94.08569336 C77.5650202 91.71439636 74.0717031 89.3924312 70.54296875 87.11328125 C69.44952148 86.39410522 69.44952148 86.39410522 68.33398438 85.66040039 C66.94507474 84.74778313 65.54706169 83.84881027 64.13867188 82.96655273 C59.50973805 79.90172001 57.60534616 77.35538404 56 72 C56.33 71.34 56.66 70.68 57 70 C57.66 70 58.32 70 59 70 C56.87663208 65.86502037 54.95083278 64.3126826 51 62 C49.64172029 60.35360035 48.30745749 58.68704193 47 57 C46.278125 56.46375 45.55625 55.9275 44.8125 55.375 C43 54 43 54 42 51 C39.99983534 49.79117904 39.99983534 49.79117904 38 49 C38 48.34 38 47.68 38 47 C37.34 47 36.68 47 36 47 C35 42 35 42 34 37 C32.68 37 31.36 37 30 37 C30 35.68 30 34.36 30 33 C28.515 32.505 28.515 32.505 27 32 C26.34 31.01 25.68 30.02 25 29 C22.94074861 28.27617533 22.94074861 28.27617533 21 28 C21 26.35 21 24.7 21 23 C20.21625 22.87625 19.4325 22.7525 18.625 22.625 C16 22 16 22 14 20 C14 19.01 14 18.02 14 17 C12.68 17 11.36 17 10 17 C9.71125 16.360625 9.4225 15.72125 9.125 15.0625 C8.17176549 12.84793921 8.17176549 12.84793921 6 12 C5.87625 11.360625 5.7525 10.72125 5.625 10.0625 C5.41875 9.381875 5.2125 8.70125 5 8 C4.34 7.71125 3.68 7.4225 3 7.125 C2.34 6.75375 1.68 6.3825 1 6 C0.25 2.875 0.25 2.875 0 0 Z " fill="#E91D25" transform="translate(182,191)"/>
<path d="M0 0 C3.34470214 1.67235107 4.91507801 2.66628296 7.42578125 5.1953125 C8.05436035 5.8251001 8.68293945 6.4548877 9.33056641 7.10375977 C9.98460449 7.77076904 10.63864258 8.43777832 11.3125 9.125 C11.98458496 9.80425537 12.65666992 10.48351074 13.34912109 11.18334961 C17.73960566 15.64595822 22.01419495 20.16906724 26 25 C26.75216797 25.89525391 26.75216797 25.89525391 27.51953125 26.80859375 C28.68622738 28.20027261 29.8443121 29.59916618 31 31 C30.34 31 29.68 31 29 31 C28.67 31.66 28.34 32.32 28 33 C27.67 32.34 27.34 31.68 27 31 C24.97536745 30.34786708 24.97536745 30.34786708 23 30 C22.505 27.525 22.505 27.525 22 25 C21.34 25 20.68 25 20 25 C19.78085938 24.45730469 19.56171875 23.91460937 19.3359375 23.35546875 C17.55552142 19.33867638 16.5983784 17.36823286 12.75 15 C11.8425 14.67 10.935 14.34 10 14 C10 13.34 10 12.68 10 12 C9.34 12 8.68 12 8 12 C7.67 10.68 7.34 9.36 7 8 C5.35 7.67 3.7 7.34 2 7 C2.00607553 8.08190676 2.01215105 9.16381351 2.01841068 10.27850533 C2.16594584 36.59299897 2.30756407 62.90751937 2.4429636 89.22207832 C2.50857878 101.9475482 2.57612269 114.67300241 2.64819336 127.3984375 C2.71099878 138.48877862 2.77019941 149.57913209 2.82505554 160.66951549 C2.8542327 166.54278882 2.88522566 172.41604 2.92053413 178.28927994 C2.95370482 183.81638704 2.98205861 189.34349785 3.00670624 194.87064934 C3.01660696 196.89996092 3.02827276 198.92926477 3.04183006 200.95855522 C3.0600715 203.72840346 3.07197135 206.49820947 3.08229065 209.26809692 C3.08909444 210.07160997 3.09589823 210.87512301 3.10290819 211.70298493 C3.11133041 215.91843209 2.83746174 219.84658553 2 224 C3.65 224 5.3 224 7 224 C7 223.34 7 222.68 7 222 C8.98 221.67 10.96 221.34 13 221 C13 220.34 13 219.68 13 219 C14.32 219 15.64 219 17 219 C17 218.34 17 217.68 17 217 C18.7902061 216.32942113 20.58221489 215.6636531 22.375 215 C23.37273437 214.62875 24.37046875 214.2575 25.3984375 213.875 C28 213 28 213 30 213 C30 212.34 30 211.68 30 211 C34.70406799 209.13459373 38.94744036 207.63156995 44 207 C44 206.01 44 205.02 44 204 C46.64 203.67 49.28 203.34 52 203 C52 202.34 52 201.68 52 201 C53.24420647 200.4654744 54.49570936 199.94791389 55.75 199.4375 C56.44609375 199.14746094 57.1421875 198.85742188 57.859375 198.55859375 C60.32267287 197.91579887 61.59358157 198.3102482 64 199 C53.39731606 204.00755769 42.78786899 209.00054729 32.17211914 213.98034668 C30.15771988 214.92596189 28.14414803 215.87331218 26.13085938 216.82128906 C22.84079198 218.36778497 19.54635567 219.90446381 16.25 221.4375 C15.28900391 221.8910083 14.32800781 222.3445166 13.33789062 222.81176758 C12.44779297 223.22322021 11.55769531 223.63467285 10.640625 224.05859375 C9.88297852 224.41236084 9.12533203 224.76612793 8.34472656 225.13061523 C6 226 6 226 0 227 C0 152.09 0 77.18 0 0 Z " fill="#CE2A33" transform="translate(68,74)"/>
<path d="M0 0 C1.73699892 1.46376314 3.46458889 2.93635351 5.1796875 4.42578125 C6.55910384 5.61870998 7.96188149 6.78469279 9.375 7.9375 C11.63654601 10.80792378 11.72471557 13.42130236 12 17 C12.78375 17.2475 13.5675 17.495 14.375 17.75 C17.38305008 19.1824048 17.75490357 20.0309239 19 23 C19.66 23.33 20.32 23.66 21 24 C21.66 24.99 22.32 25.98 23 27 C23.66 27.33 24.32 27.66 25 28 C25.268125 28.639375 25.53625 29.27875 25.8125 29.9375 C27.39241741 32.68156708 29.0515206 33.06890124 32 34 C32 35.65 32 37.3 32 39 C32.7425 39.0825 33.485 39.165 34.25 39.25 C37.58676213 40.16002604 38.90015697 41.27798125 41 44 C41 45.32 41 46.64 41 48 C42.32 48 43.64 48 45 48 C46.5625 50.8125 46.5625 50.8125 48 54 C47.67 54.99 47.34 55.98 47 57 C43.63983107 55.87994369 42.30935087 54.62788203 40 52 C40 51.34 40 50.68 40 50 C39.401875 49.731875 38.80375 49.46375 38.1875 49.1875 C36.01273336 48.00691239 34.73183488 46.73183488 33 45 C32.01 44.67 31.02 44.34 30 44 C28.75765835 42.52880595 27.51882619 41.05398802 26.3203125 39.546875 C24.46212914 37.36983178 22.25743014 35.74950836 20 34 C18.33333333 32.33333333 16.66666667 30.66666667 15 29 C12.87219279 27.16595722 10.73193636 25.34954399 8.57421875 23.55078125 C8.05472656 23.03902344 7.53523437 22.52726562 7 22 C7 21.34 7 20.68 7 20 C6.01 20 5.02 20 4 20 C4 19.34 4 18.68 4 18 C3.01 17.67 2.02 17.34 1 17 C1 16.34 1 15.68 1 15 C0.34 15 -0.32 15 -1 15 C-2 12 -2 12 -1.0625 9.75 C0.23961555 6.37981859 0.14047634 3.58214661 0 0 Z " fill="#F01A23" transform="translate(171,180)"/>
<path d="M0 0 C6.23305406 4.11627316 12.38838674 8.33079551 18.5 12.625 C19.36004639 13.22820068 20.22009277 13.83140137 21.10620117 14.45288086 C31.76352816 21.93172401 42.41098008 29.42467268 53 37 C52.01 37.33 51.02 37.66 50 38 C46.49041152 40.52690371 45.99348834 43.94962446 45 48 C41.63780021 45.37584407 38.71515855 42.7683253 35.97265625 39.5 C31.26496696 34.05508171 26.12174982 29.04966084 21 24 C15.29536453 18.37565766 9.62171788 12.7736271 4.4375 6.65625 C3.01215803 4.95880776 3.01215803 4.95880776 1.3125 3.40625 C0 2 0 2 0 0 Z " fill="#2D2D2E" transform="translate(70,56)"/>
<path d="M0 0 C1.32 0.33 2.64 0.66 4 1 C4 1.99 4 2.98 4 4 C4.556875 4.226875 5.11375 4.45375 5.6875 4.6875 C8.66159588 6.37550036 10.72008865 8.46676517 13 11 C13 11.66 13 12.32 13 13 C14.11375 12.97035156 15.2275 12.94070313 16.375 12.91015625 C22.90686882 13.72951987 26.69633734 18.87931966 31 23.4375 C32.30517578 24.76491211 32.30517578 24.76491211 33.63671875 26.11914062 C40 32.6772162 40 32.6772162 40 35 C40.66 35 41.32 35 42 35 C43.7265625 36.75 43.7265625 36.75 45.625 39 C46.25664062 39.7425 46.88828125 40.485 47.5390625 41.25 C48.26222656 42.11625 48.26222656 42.11625 49 43 C48.505 43.99 48.505 43.99 48 45 C46.5459375 43.89205078 46.5459375 43.89205078 45.0625 42.76171875 C38.13725513 37.51106371 31.17352833 32.34513973 24 27.4375 C23.35071533 26.99140381 22.70143066 26.54530762 22.0324707 26.08569336 C18.5650202 23.71439636 15.0717031 21.3924312 11.54296875 19.11328125 C10.81400391 18.63383057 10.08503906 18.15437988 9.33398438 17.66040039 C7.94507474 16.74778313 6.54706169 15.84881027 5.13867188 14.96655273 C0.50973805 11.90172001 -1.39465384 9.35538404 -3 4 C-2.67 3.34 -2.34 2.68 -2 2 C-1.34 2 -0.68 2 0 2 C0 1.34 0 0.68 0 0 Z " fill="#DF0912" transform="translate(241,259)"/>
<path d="M0 0 C2.97 0.495 2.97 0.495 6 1 C6.33 1.99 6.66 2.98 7 4 C8.216875 3.690625 9.43375 3.38125 10.6875 3.0625 C19.58506592 0.86168864 19.58506592 0.86168864 23 2 C25.6875 4.4375 25.6875 4.4375 28 7 C28 7.66 28 8.32 28 9 C28.99 9.33 29.98 9.66 31 10 C31.99 11.485 31.99 11.485 33 13 C34.2684375 13.7115625 34.2684375 13.7115625 35.5625 14.4375 C38 16 38 16 38.9375 18 C39 20 39 20 37 23 C37.30840599 25.15274948 37.30840599 25.15274948 38 27 C33.99187706 25.19735174 30.47218908 22.68212599 26.875 20.1875 C25.84439453 19.4752124 25.84439453 19.4752124 24.79296875 18.74853516 C19.16080718 14.83913755 13.57013884 10.87217789 8 6.875 C7.2044873 6.30676514 6.40897461 5.73853027 5.58935547 5.15307617 C4.85861816 4.62560791 4.12788086 4.09813965 3.375 3.5546875 C2.72273437 3.08530762 2.07046875 2.61592773 1.3984375 2.13232422 C0.93695313 1.75865723 0.47546875 1.38499023 0 1 C0 0.67 0 0.34 0 0 Z " fill="#DC0D17" transform="translate(202,241)"/>
<path d="M0 0 C0 23.1 0 46.2 0 70 C-6 73 -6 73 -8 73 C-9.125 69.25 -9.125 69.25 -8 67 C-9.32 67 -10.64 67 -12 67 C-12 66.34 -12 65.68 -12 65 C-9.01758453 64.22678118 -6.02419525 63.58803797 -3 63 C-3 62.01 -3 61.02 -3 60 C-3.66 59.67 -4.32 59.34 -5 59 C-4.34 58.01 -3.68 57.02 -3 56 C-2.70970801 53.47354972 -2.70970801 53.47354972 -2.77294922 50.6105957 C-2.77310028 49.50968094 -2.77325134 48.40876617 -2.77340698 47.27449036 C-2.78372955 46.08691635 -2.79405212 44.89934235 -2.8046875 43.67578125 C-2.8075174 42.45924362 -2.81034729 41.24270599 -2.81326294 39.98930359 C-2.82447397 36.09693642 -2.84958052 32.20479784 -2.875 28.3125 C-2.88502859 25.67643561 -2.89415465 23.04036762 -2.90234375 20.40429688 C-2.92441634 13.93611968 -2.95790312 7.46807617 -3 1 C-1 0 -1 0 0 0 Z " fill="#C91524" transform="translate(140,199)"/>
<path d="M0 0 C2.475 0.495 2.475 0.495 5 1 C4.67 2.32 4.34 3.64 4 5 C3.67 4.34 3.34 3.68 3 3 C2.34 3 1.68 3 1 3 C1.16298584 4.12869507 1.32597168 5.25739014 1.49389648 6.42028809 C2.32890519 14.00960683 2.12229406 21.65120113 2.09765625 29.27539062 C2.09573461 31.02251137 2.09427197 32.76963266 2.0932312 34.51675415 C2.09008039 38.26692232 2.08382676 42.01706773 2.07516479 45.76722717 C2.06157797 51.71228867 2.05573403 57.65734275 2.05102539 63.60241699 C2.03900507 77.30515114 2.01700411 91.00786579 1.99479675 104.71058655 C1.97455584 117.25392121 1.95649146 129.79724904 1.94658184 142.34059668 C1.94163696 148.23423696 1.93183312 154.12784197 1.91815186 160.02146816 C1.91061806 163.7108281 1.90736184 167.40018341 1.9051857 171.08955002 C1.90333562 172.78205527 1.89977987 174.4745598 1.89425278 176.16705704 C1.85955932 187.15011564 2.23278554 198.04312172 3 209 C2.34 209.33 1.68 209.66 1 210 C-0.2577567 206.22672991 -0.13462358 202.71078082 -0.12025452 198.78071594 C-0.12110894 197.93285733 -0.12196337 197.08499872 -0.12284368 196.21144742 C-0.12449557 193.3601006 -0.11898184 190.50881214 -0.11352539 187.6574707 C-0.11324343 185.61764528 -0.11340143 183.57781975 -0.1139679 181.53799438 C-0.11425552 175.99081944 -0.10836435 170.44366599 -0.10139394 164.89649606 C-0.09515468 159.10288873 -0.09455615 153.30928094 -0.09336853 147.51567078 C-0.09025691 136.54035765 -0.08204579 125.56505445 -0.07201904 114.5897457 C-0.06085267 102.0965657 -0.05534613 89.60338523 -0.05032361 77.11020148 C-0.03986305 51.40679548 -0.02226686 25.70339829 0 0 Z " fill="#E7202A" transform="translate(70,81)"/>
<path d="M0 0 C1.98 0.99 1.98 0.99 4 2 C3.01 2.495 3.01 2.495 2 3 C1.67 76.92 1.34 150.84 1 227 C0.67 227 0.34 227 0 227 C0 152.09 0 77.18 0 0 Z " fill="#EE7C7F" transform="translate(68,74)"/>
<path d="M0 0 C4.74797031 0.59349629 9.05861234 2.30090913 13 5 C14.25 7.625 14.25 7.625 15 10 C17.9073811 11.7708594 20.99456469 12.68263715 24.25 13.625 C25.14203125 13.88539063 26.0340625 14.14578125 26.953125 14.4140625 C27.62859375 14.60742188 28.3040625 14.80078125 29 15 C29.33 14.34 29.66 13.68 30 13 C31.83947337 14.78572252 33.67157741 16.57802449 35.5 18.375 C36.02464844 18.88289063 36.54929687 19.39078125 37.08984375 19.9140625 C38.43153181 21.23832604 39.71995815 22.61605865 41 24 C41 24.66 41 25.32 41 26 C41.66 26 42.32 26 43 26 C44.7265625 27.75 44.7265625 27.75 46.625 30 C47.25664062 30.7425 47.88828125 31.485 48.5390625 32.25 C49.26222656 33.11625 49.26222656 33.11625 50 34 C49.505 34.99 49.505 34.99 49 36 C47.5459375 34.89205078 47.5459375 34.89205078 46.0625 33.76171875 C35.8372816 26.00905505 25.38663014 18.67024612 14.75830078 11.484375 C12.52398031 9.97223502 10.29321228 8.45495555 8.0625 6.9375 C7.36962891 6.47206787 6.67675781 6.00663574 5.96289062 5.52709961 C1.11274277 2.22548553 1.11274277 2.22548553 0 0 Z " fill="#C62E39" transform="translate(240,268)"/>
<path d="M0 0 C-0.8125 1.9375 -0.8125 1.9375 -2 4 C-2.99 4.33 -3.98 4.66 -5 5 C-7.30839557 8.29679507 -7.26677759 11.35664402 -7.30297852 15.29736328 C-7.31962051 16.5719339 -7.33626251 17.84650452 -7.35340881 19.15969849 C-7.36196911 20.54656945 -7.37046676 21.9334408 -7.37890625 23.3203125 C-7.39508576 24.74471166 -7.41226624 26.16909978 -7.43040466 27.59347534 C-7.47603626 31.33761494 -7.51087304 35.08176937 -7.54260254 38.8260498 C-7.59453458 44.82627144 -7.65957174 50.82633097 -7.73081779 56.82635117 C-7.75366986 58.9236176 -7.76992617 61.02086333 -7.78553772 63.11819458 C-7.79902756 64.38646088 -7.8125174 65.65472717 -7.82641602 66.96142578 C-7.83592789 68.08187286 -7.84543976 69.20231995 -7.85523987 70.35671997 C-8 73 -8 73 -9 75 C-9.99 75 -10.98 75 -12 75 C-11.505 74.01 -11.505 74.01 -11 73 C-10.92031355 70.87136665 -10.90624378 68.74017623 -10.92163086 66.61010742 C-10.92774707 65.25139952 -10.93367381 63.89269076 -10.93943787 62.53398132 C-10.94411009 61.81262182 -10.94878231 61.09126232 -10.95359612 60.34804344 C-10.97274134 56.53083329 -10.95756598 52.71370885 -10.94726562 48.89648438 C-10.93501429 44.03734013 -10.93333894 39.17907602 -10.97583008 34.32006836 C-11.00925492 30.39442541 -11.00378057 26.47052373 -10.97226143 22.54488564 C-10.96733797 21.05018313 -10.97661681 19.55536277 -11.00047112 18.06084251 C-11.17621094 6.36168048 -11.17621094 6.36168048 -8.22488403 2.94497681 C-5.50384575 1.18050159 -3.2744081 0 0 0 Z " fill="#7D7D7D" transform="translate(229,87)"/>
<path d="M0 0 C1.7377173 1.46436851 3.46559099 2.93766017 5.1796875 4.4296875 C6.54987107 5.61169135 7.95470131 6.75371156 9.375 7.875 C11.87020773 11.13796395 11.80266487 13.92174058 12 18 C11.67 18.66 11.34 19.32 11 20 C10.01 19.67 9.02 19.34 8 19 C5.85744207 19.38932856 5.85744207 19.38932856 4 20 C4 19.34 4 18.68 4 18 C3.01 17.67 2.02 17.34 1 17 C1 16.34 1 15.68 1 15 C0.34 15 -0.32 15 -1 15 C-2 12 -2 12 -1.0625 9.75 C0.23961555 6.37981859 0.14047634 3.58214661 0 0 Z " fill="#EF1B26" transform="translate(171,180)"/>
<path d="M0 0 C2.04119788 1.61594832 4.04072937 3.2856382 6 5 C6 5.66 6 6.32 6 7 C6.99 7.33 7.98 7.66 9 8 C10.43969727 9.4609375 10.43969727 9.4609375 12.00390625 11.375 C16.67876728 16.88496512 21.80857808 21.91725319 26.9375 27 C27.9175531 27.97502386 28.8973724 28.9502828 29.87695312 29.92578125 C32.24902313 32.28616618 34.6234086 34.64416905 37 37 C34.3333581 38.33332095 32.83319697 37.67102033 30 37 C30 35.68 30 34.36 30 33 C28.515 32.505 28.515 32.505 27 32 C26.34 31.01 25.68 30.02 25 29 C22.94074861 28.27617533 22.94074861 28.27617533 21 28 C21 26.35 21 24.7 21 23 C20.21625 22.87625 19.4325 22.7525 18.625 22.625 C16 22 16 22 14 20 C14 19.01 14 18.02 14 17 C12.68 17 11.36 17 10 17 C9.71125 16.360625 9.4225 15.72125 9.125 15.0625 C8.17176549 12.84793921 8.17176549 12.84793921 6 12 C5.87625 11.360625 5.7525 10.72125 5.625 10.0625 C5.41875 9.381875 5.2125 8.70125 5 8 C4.34 7.71125 3.68 7.4225 3 7.125 C2.34 6.75375 1.68 6.3825 1 6 C0.25 2.875 0.25 2.875 0 0 Z " fill="#DB3944" transform="translate(182,191)"/>
<path d="M0 0 C8.0139423 6.6202132 15.55034638 13.83043875 22 22 C19.23711167 23.38144416 17.91844669 22.91010032 15 22 C13.05078125 20.1875 13.05078125 20.1875 11.3125 18 C9.03120707 15.03807329 9.03120707 15.03807329 6 13 C5.59270772 10.67843403 5.25561323 8.3431213 5 6 C3.68 6 2.36 6 1 6 C0.67 4.02 0.34 2.04 0 0 Z " fill="#DE232C" transform="translate(239,250)"/>
<path d="M0 0 C10.0805231 8.40043591 18.66659587 17.89890408 27 28 C26.34 28 25.68 28 25 28 C24.67 28.66 24.34 29.32 24 30 C23.67 29.34 23.34 28.68 23 28 C20.97536745 27.34786708 20.97536745 27.34786708 19 27 C18.505 24.525 18.505 24.525 18 22 C17.34 22 16.68 22 16 22 C15.78085938 21.45730469 15.56171875 20.91460937 15.3359375 20.35546875 C13.55552142 16.33867638 12.5983784 14.36823286 8.75 12 C7.8425 11.67 6.935 11.34 6 11 C6 10.34 6 9.68 6 9 C5.34 9 4.68 9 4 9 C3.67 7.68 3.34 6.36 3 5 C2.34 5 1.68 5 1 5 C0.67 3.35 0.34 1.7 0 0 Z " fill="#DD5860" transform="translate(72,77)"/>
<path d="M0 0 C7.4137593 4.8850352 14.71168804 9.93084949 22 15 C21.01 15.33 20.02 15.66 19 16 C17.79117904 18.00016466 17.79117904 18.00016466 17 20 C12.64771006 15.76676966 8.52677576 11.40978477 4.578125 6.796875 C3.03198806 4.98031867 3.03198806 4.98031867 1.296875 3.390625 C0 2 0 2 0 0 Z " fill="#5C5C5C" transform="translate(70,56)"/>
<path d="M0 0 C5.35048061 0.37328935 7.50912907 1.9957657 11 6 C10.01 6.33 9.02 6.66 8 7 C8 7.99 8 8.98 8 10 C8.66 10 9.32 10 10 10 C10.33 10.99 10.66 11.98 11 13 C10.34 13.66 9.68 14.32 9 15 C7.29490284 13.45672226 5.6113326 11.8896325 3.9375 10.3125 C2.99777344 9.44238281 2.05804688 8.57226562 1.08984375 7.67578125 C-1 5 -1 5 -0.80859375 2.16796875 C-0.54175781 1.45253906 -0.27492188 0.73710938 0 0 Z " fill="#424342" transform="translate(89,72)"/>
<path d="M0 0 C4.46029176 0 6.70055803 1.31605278 9.8125 4.3125 C12.2496511 6.7926913 13.41425967 8.55402117 14 12 C3.75574261 9.86070686 3.75574261 9.86070686 0.75 6.4375 C0 4 0 4 1 2 C0.34 1.67 -0.32 1.34 -1 1 C-0.67 0.67 -0.34 0.34 0 0 Z " fill="#DC131D" transform="translate(256,272)"/>
<path d="M0 0 C5.15223326 4.26596977 9.78387986 8.76973957 14.3125 13.6875 C14.93189453 14.35072266 15.55128906 15.01394531 16.18945312 15.69726562 C18.69476791 18.39843563 20.94989325 20.92483988 23 24 C21.35 23.67 19.7 23.34 18 23 C17.67 21.68 17.34 20.36 17 19 C16.401875 18.9175 15.80375 18.835 15.1875 18.75 C12.37067727 17.78423221 11.52200868 16.51131433 10 14 C10 13.34 10 12.68 10 12 C9.01 11.67 8.02 11.34 7 11 C7 10.01 7 9.02 7 8 C5.02 7.34 3.04 6.68 1 6 C1 5.34 1 4.68 1 4 C0.34 4 -0.32 4 -1 4 C-0.67 2.68 -0.34 1.36 0 0 Z " fill="#DD565F" transform="translate(99,105)"/>
<path d="M0 0 C3.94824545 2.87145124 6.94093102 6.14278702 10.0859375 9.828125 C13.22151735 13.38604826 16.60855859 16.68783904 20 20 C19.34 20.33 18.68 20.66 18 21 C17.67 21.66 17.34 22.32 17 23 C17 22.34 17 21.68 17 21 C16.34 21 15.68 21 15 21 C15 19.68 15 18.36 15 17 C14.113125 16.814375 13.22625 16.62875 12.3125 16.4375 C8.06687676 14.59505973 6.15139347 12.03624262 4 8 C4 7.34 4 6.68 4 6 C3.01 6 2.02 6 1 6 C0.67 4.02 0.34 2.04 0 0 Z " fill="#DB515B" transform="translate(219,229)"/>
<path d="M0 0 C4.71403788 0.47939368 8.66579301 0.96834048 13 3 C13 3.66 13 4.32 13 5 C14.65 5.33 16.3 5.66 18 6 C18 6.99 18 7.98 18 9 C16.02 9.99 16.02 9.99 14 11 C11.6638026 9.35810616 9.33099647 7.7117475 7 6.0625 C6.33226562 5.59392578 5.66453125 5.12535156 4.9765625 4.64257812 C3.29970233 3.45337627 1.64761213 2.22940446 0 1 C0 0.67 0 0.34 0 0 Z " fill="#D51B27" transform="translate(182,227)"/>
<path d="M0 0 C4.29 0 8.58 0 13 0 C14 6.625 14 6.625 14 10 C10.67312232 8.45315734 7.75296022 6.54045021 4.75 4.4375 C3.85796875 3.81746094 2.9659375 3.19742188 2.046875 2.55859375 C1.37140625 2.04425781 0.6959375 1.52992188 0 1 C0 0.67 0 0.34 0 0 Z " fill="#D2222A" transform="translate(168,217)"/>
<path d="M0 0 C4.74797031 0.59349629 9.05861234 2.30090913 13 5 C14.25 7.625 14.25 7.625 15 10 C18.00037578 12.03596928 21.56034512 12.90556436 25 14 C23.02 14.99 23.02 14.99 21 16 C10.74609375 8.67578125 10.74609375 8.67578125 8.89013672 7.34619141 C7.58933228 6.41973368 6.28334017 5.50053075 4.97314453 4.58740234 C3.29876882 3.41504404 1.64708226 2.21040408 0 1 C0 0.67 0 0.34 0 0 Z " fill="#CD424F" transform="translate(240,268)"/>
<path d="M0 0 C4.875 1.75 4.875 1.75 6 4 C4.35 4.33 2.7 4.66 1 5 C0.01 7.97 -0.98 10.94 -2 14 C-4 12.9375 -4 12.9375 -6 11 C-6.25 7.3125 -6.25 7.3125 -6 4 C-4.7934375 3.566875 -4.7934375 3.566875 -3.5625 3.125 C-0.8673532 2.26737432 -0.8673532 2.26737432 0 0 Z " fill="#3C3C3C" transform="translate(117,90)"/>
<path d="M0 0 C4.32504836 1.65863505 7.09418825 4.871041 10.25 8.125 C11.08144531 8.96998047 11.08144531 8.96998047 11.9296875 9.83203125 C13.29104485 11.21686028 14.64614859 12.60783204 16 14 C13.3333581 15.33332095 11.83319697 14.67102033 9 14 C9 12.68 9 11.36 9 10 C8.01 9.67 7.02 9.34 6 9 C5.34 8.01 4.68 7.02 4 6 C1.94074861 5.27617533 1.94074861 5.27617533 0 5 C0 3.35 0 1.7 0 0 Z " fill="#DC505A" transform="translate(203,214)"/>
<path d="M0 0 C2 1.375 2 1.375 4 3 C4 3.66 4 4.32 4 5 C4.66 5 5.32 5 6 5 C7.7265625 6.75 7.7265625 6.75 9.625 9 C10.25664062 9.7425 10.88828125 10.485 11.5390625 11.25 C12.02117187 11.8275 12.50328125 12.405 13 13 C12.67 13.66 12.34 14.32 12 15 C6.72 11.04 1.44 7.08 -4 3 C-3.34 2.67 -2.68 2.34 -2 2 C-1.34 2.33 -0.68 2.66 0 3 C0 2.01 0 1.02 0 0 Z " fill="#C8515B" transform="translate(277,289)"/>
<path d="M0 0 C-3.93015392 1.87003926 -7.87018236 3.7182591 -11.8125 5.5625 C-12.93205078 6.09552734 -14.05160156 6.62855469 -15.20507812 7.17773438 C-16.27822266 7.67724609 -17.35136719 8.17675781 -18.45703125 8.69140625 C-19.44678955 9.15748291 -20.43654785 9.62355957 -21.45629883 10.10375977 C-24 11 -24 11 -27 10 C-24 8 -24 8 -20 8 C-20 7.01 -20 6.02 -20 5 C-17.36 4.67 -14.72 4.34 -12 4 C-12 3.34 -12 2.68 -12 2 C-10.75579353 1.4654744 -9.50429064 0.94791389 -8.25 0.4375 C-7.55390625 0.14746094 -6.8578125 -0.14257812 -6.140625 -0.44140625 C-3.67732713 -1.08420113 -2.40641843 -0.6897518 0 0 Z " fill="#C32731" transform="translate(132,273)"/>
<path d="M0 0 C0.33 0 0.66 0 1 0 C1 3.96 1 7.92 1 12 C-1.31 12.33 -3.62 12.66 -6 13 C-5.67 12.01 -5.34 11.02 -5 10 C-6.32 10 -7.64 10 -9 10 C-9 9.34 -9 8.68 -9 8 C-6.01758453 7.22678118 -3.02419525 6.58803797 0 6 C0 5.01 0 4.02 0 3 C-0.66 2.67 -1.32 2.34 -2 2 C-1.34 1.34 -0.68 0.68 0 0 Z " fill="#DE0912" transform="translate(137,256)"/>
<path d="M0 0 C0.66 0.33 1.32 0.66 2 1 C1.01 1.33 0.02 1.66 -1 2 C-1.33 2.99 -1.66 3.98 -2 5 C-2.99 5.495 -2.99 5.495 -4 6 C-4 6.99 -4 7.98 -4 9 C-6.8125 9.1875 -6.8125 9.1875 -10 9 C-11.69921875 7.48828125 -11.69921875 7.48828125 -13 6 C-10.87959258 4.96966118 -8.75352092 3.95097146 -6.625 2.9375 C-5.44164062 2.36902344 -4.25828125 1.80054688 -3.0390625 1.21484375 C-2.03617187 0.81394531 -1.03328125 0.41304687 0 0 Z " fill="#4E4E4E" transform="translate(281,62)"/>
<path d="M0 0 C2.97 0.495 2.97 0.495 6 1 C6.33 1.99 6.66 2.98 7 4 C8.32 4 9.64 4 11 4 C11 4.66 11 5.32 11 6 C11.78375 6.28875 12.5675 6.5775 13.375 6.875 C16 8 16 8 18 10 C17.67 10.66 17.34 11.32 17 12 C12.66498025 10.52818439 9.28143997 8.2017333 5.6875 5.4375 C4.86282227 4.8197168 4.86282227 4.8197168 4.02148438 4.18945312 C2.65866955 3.1550682 1.32624296 2.08087744 0 1 C0 0.67 0 0.34 0 0 Z " fill="#CC3840" transform="translate(202,241)"/>
<path d="M0 0 C4.33333333 4.33333333 8.66666667 8.66666667 13 13 C12.67 13.66 12.34 14.32 12 15 C11.01 15 10.02 15 9 15 C9 14.01 9 13.02 9 12 C7.824375 11.566875 7.824375 11.566875 6.625 11.125 C4 10 4 10 2 8 C2 6.68 2 5.36 2 4 C1.34 4 0.68 4 0 4 C0 2.68 0 1.36 0 0 Z " fill="#DB2F3C" transform="translate(126,133)"/>
<path d="M0 0 C0.33 1.32 0.66 2.64 1 4 C1.99 3.67 2.98 3.34 4 3 C4.66 5.31 5.32 7.62 6 10 C5.34 10.66 4.68 11.32 4 12 C0.7 8.7 -2.6 5.4 -6 2 C-3 0 -3 0 0 0 Z " fill="#454544" transform="translate(123,105)"/>
<path d="M0 0 C2.64 0.33 5.28 0.66 8 1 C7.34 1.66 6.68 2.32 6 3 C5.01 3 4.02 3 3 3 C3 3.66 3 4.32 3 5 C0.36 5.33 -2.28 5.66 -5 6 C-5 4.68 -5 3.36 -5 2 C-3.35 2 -1.7 2 0 2 C0 1.34 0 0.68 0 0 Z M-6 6 C-5.67 6.99 -5.34 7.98 -5 9 C-5.99 8.67 -6.98 8.34 -8 8 C-7.34 8 -6.68 8 -6 8 C-6 7.34 -6 6.68 -6 6 Z " fill="#DC0913" transform="translate(117,272)"/>
<path d="M0 0 C2 1.375 2 1.375 4 3 C4 3.66 4 4.32 4 5 C4.66 5 5.32 5 6 5 C7.65625 6.64453125 7.65625 6.64453125 9.5 8.8125 C10.1084375 9.52019531 10.716875 10.22789062 11.34375 10.95703125 C13 13 13 13 15 16 C13.35 15.67 11.7 15.34 10 15 C10 14.01 10 13.02 10 12 C9.401875 11.731875 8.80375 11.46375 8.1875 11.1875 C4.77915781 9.3372571 3.14857639 7.22286458 1 4 C0.375 1.8125 0.375 1.8125 0 0 Z " fill="#D9454F" transform="translate(156,164)"/>
<path d="M0 0 C4.54805635 -0.17835515 7.8794254 0.00214565 12 2 C11.67 3.65 11.34 5.3 11 7 C10.34 7 9.68 7 9 7 C9 6.34 9 5.68 9 5 C8.2575 4.9175 7.515 4.835 6.75 4.75 C3.48778646 3.8603054 2.19045122 2.51496251 0 0 Z " fill="#DD0817" transform="translate(148,200)"/>
<path d="M0 0 C4.45836229 0.50952712 6.58451895 2.19755401 10 5 C12.18214568 5.77833534 12.18214568 5.77833534 14 6 C14.33 7.65 14.66 9.3 15 11 C10.92584833 9.59790456 8.01720177 7.65552322 4.6875 4.9375 C3.80449219 4.22464844 2.92148438 3.51179687 2.01171875 2.77734375 C1.34785156 2.19082031 0.68398437 1.60429687 0 1 C0 0.67 0 0.34 0 0 Z " fill="#CE474E" transform="translate(143,199)"/>
<path d="M0 0 C2.04119788 1.61594832 4.04072937 3.2856382 6 5 C6 5.66 6 6.32 6 7 C6.99 7.33 7.98 7.66 9 8 C10.6875 10.5625 10.6875 10.5625 12 13 C10.35 13 8.7 13 7 13 C6.7525 12.21625 6.505 11.4325 6.25 10.625 C5.27879632 7.85960111 5.27879632 7.85960111 2.9375 7.0625 C2.298125 6.711875 1.65875 6.36125 1 6 C0.25 2.875 0.25 2.875 0 0 Z " fill="#DA4C53" transform="translate(182,191)"/>
<path d="M0 0 C4.43458973 1.3937282 6.87378374 3.60582235 10 7 C5.375 9.125 5.375 9.125 2 8 C2 7.34 2 6.68 2 6 C1.34 5.67 0.68 5.34 0 5 C0 3.35 0 1.7 0 0 Z M3 3 C3 3.66 3 4.32 3 5 C3.66 4.67 4.32 4.34 5 4 C4.34 3.67 3.68 3.34 3 3 Z " fill="#353535" transform="translate(145,110)"/>
<path d="M0 0 C3.80635497 3.20760251 7.54563567 6.40746109 11 10 C10.67 10.99 10.34 11.98 10 13 C8.68 12.34 7.36 11.68 6 11 C6 10.34 6 9.68 6 9 C5.34 9 4.68 9 4 9 C3.67 7.68 3.34 6.36 3 5 C2.34 5 1.68 5 1 5 C0.67 3.35 0.34 1.7 0 0 Z " fill="#DD5C63" transform="translate(72,77)"/>
<path d="M0 0 C4.91935902 4.11619836 9.52647956 8.40410362 14 13 C13.01 13 12.02 13 11 13 C10.34 12.34 9.68 11.68 9 11 C6.93125966 10.3574765 6.93125966 10.3574765 5 10 C5 8.68 5 7.36 5 6 C3.68 6 2.36 6 1 6 C0.67 4.02 0.34 2.04 0 0 Z " fill="#DF666F" transform="translate(239,250)"/>
<path d="M0 0 C4.43458973 1.3937282 6.87378374 3.60582235 10 7 C8.68 7.33 7.36 7.66 6 8 C6 7.01 6 6.02 6 5 C4.02 5.33 2.04 5.66 0 6 C-1 3 -1 3 0 0 Z " fill="#3C3C3C" transform="translate(196,146)"/>
<path d="M0 0 C1.98 0.495 1.98 0.495 4 1 C4 2.65 4 4.3 4 6 C4.99 6 5.98 6 7 6 C7 6.66 7 7.32 7 8 C5.68 8.33 4.36 8.66 3 9 C2.67 8.01 2.34 7.02 2 6 C1.01 5.67 0.02 5.34 -1 5 C-0.67 3.35 -0.34 1.7 0 0 Z " fill="#EB1D25" transform="translate(112,136)"/>
<path d="M0 0 C-0.8125 1.9375 -0.8125 1.9375 -2 4 C-2.99 4.33 -3.98 4.66 -5 5 C-6.20882096 7.00016466 -6.20882096 7.00016466 -7 9 C-7.99 8.34 -8.98 7.68 -10 7 C-8.89184175 3.78634109 -8.01470446 3.0085776 -5 1.25 C-2 0 -2 0 0 0 Z " fill="#3D3D3D" transform="translate(229,87)"/>
<path d="M0 0 C1.98 0 3.96 0 6 0 C6 1.32 6 2.64 6 4 C8.31 4.66 10.62 5.32 13 6 C13.33 7.32 13.66 8.64 14 10 C10.67312232 8.45315734 7.75296022 6.54045021 4.75 4.4375 C3.85796875 3.81746094 2.9659375 3.19742187 2.046875 2.55859375 C1.37140625 2.04425781 0.6959375 1.52992188 0 1 C0 0.67 0 0.34 0 0 Z " fill="#D2434F" transform="translate(226,258)"/>
<path d="M0 0 C3.45201639 1.47721422 5.64961936 3.43794001 8.25 6.125 C8.95640625 6.84945312 9.6628125 7.57390625 10.390625 8.3203125 C11.18726562 9.15175781 11.18726562 9.15175781 12 10 C11.01 10.33 10.02 10.66 9 11 C8.01 10.34 7.02 9.68 6 9 C6 8.01 6 7.02 6 6 C5.071875 5.9071875 5.071875 5.9071875 4.125 5.8125 C2 5 2 5 0.75 2.4375 C0.5025 1.633125 0.255 0.82875 0 0 Z " fill="#DC424F" transform="translate(110,118)"/>
<path d="M0 0 C1.66666667 0 3.33333333 0 5 0 C6.41377341 2.63904371 7.37240135 5.07120629 8 8 C5 8 5 8 3.39453125 6.46875 C2.87246094 5.8190625 2.35039062 5.169375 1.8125 4.5 C1.28269531 3.8503125 0.75289063 3.200625 0.20703125 2.53125 C-0.19128906 2.0259375 -0.58960938 1.520625 -1 1 C-0.67 0.67 -0.34 0.34 0 0 Z " fill="#424342" transform="translate(264,256)"/>
<path d="M0 0 C0.66 0 1.32 0 2 0 C2.33 1.98 2.66 3.96 3 6 C4.32 6 5.64 6 7 6 C6.67 7.32 6.34 8.64 6 10 C5.236875 9.360625 4.47375 8.72125 3.6875 8.0625 C1.11753287 5.85767219 1.11753287 5.85767219 -2 5 C-2 4.01 -2 3.02 -2 2 C-1.34 2 -0.68 2 0 2 C0 1.34 0 0.68 0 0 Z " fill="#E61F29" transform="translate(237,250)"/>
<path d="M0 0 C1.32 0.66 2.64 1.32 4 2 C4.08886184 5.19902639 3.91058531 7.92677456 3 11 C2.01 11 1.02 11 0 11 C-0.19406478 9.35492782 -0.38007935 7.70890406 -0.5625 6.0625 C-0.66691406 5.14597656 -0.77132812 4.22945313 -0.87890625 3.28515625 C-0.91886719 2.53105469 -0.95882812 1.77695313 -1 1 C-0.67 0.67 -0.34 0.34 0 0 Z " fill="#1F1F1F" transform="translate(106,83)"/>
<path d="M0 0 C3.26954202 0.56371414 4.82575883 1.49962266 7 4 C6.01 4 5.02 4 4 4 C3.34 5.32 2.68 6.64 2 8 C0.4375 6.8125 0.4375 6.8125 -1 5 C-0.6875 2.3125 -0.6875 2.3125 0 0 Z " fill="#505050" transform="translate(85,68)"/>
<path d="M0 0 C0.99 2.64 1.98 5.28 3 8 C-1.43458973 6.6062718 -3.87378374 4.39417765 -7 1 C-4 0 -4 0 0 0 Z " fill="#D13844" transform="translate(165,209)"/>
<path d="M0 0 C4.13621084 3.3810038 7.81316569 6.66590534 11 11 C9.35 10.67 7.7 10.34 6 10 C6 9.01 6 8.02 6 7 C4.35 6.67 2.7 6.34 1 6 C0.67 4.02 0.34 2.04 0 0 Z " fill="#D84B54" transform="translate(171,180)"/>
<path d="M0 0 C4.455 2.97 4.455 2.97 9 6 C5.4819894 6.87950265 3.52089836 7 0 7 C0 4.69 0 2.38 0 0 Z " fill="#3D3D3D" transform="translate(183,136)"/>
<path d="M0 0 C2.31 0.33 4.62 0.66 7 1 C7.33 1.99 7.66 2.98 8 4 C7.01 4 6.02 4 5 4 C3.31201173 5.43750191 3.31201173 5.43750191 2 7 C0.5393715 4.35261084 0 3.10551666 0 0 Z " fill="#DD070D" transform="translate(136,192)"/>
<path d="M0 0 C0.99 0 1.98 0 3 0 C3.33 2.31 3.66 4.62 4 7 C2.68 6.67 1.36 6.34 0 6 C-1.125 2.25 -1.125 2.25 0 0 Z " fill="#343434" transform="translate(89,72)"/>
<path d="M0 0 C5.1358421 1.87655769 7.84442256 3.32974539 11 8 C10.34 8 9.68 8 9 8 C8.67 8.66 8.34 9.32 8 10 C8 9.34 8 8.68 8 8 C7.34 8 6.68 8 6 8 C6 6.68 6 5.36 6 4 C4.02 3.34 2.04 2.68 0 2 C0 1.34 0 0.68 0 0 Z " fill="#E23F4C" transform="translate(228,242)"/>
<path d="M0 0 C1.9375 0.3125 1.9375 0.3125 4 1 C4.33 1.99 4.66 2.98 5 4 C6.49985609 5.66710346 6.49985609 5.66710346 8 7 C6.02 7.99 6.02 7.99 4 9 C3.67 8.34 3.34 7.68 3 7 C2.34 6.67 1.68 6.34 1 6 C1.33 5.34 1.66 4.68 2 4 C1.10836423 1.88316159 1.10836423 1.88316159 0 0 Z " fill="#EB1D27" transform="translate(102,112)"/>
<path d="M0 0 C1.27875 0.103125 2.5575 0.20625 3.875 0.3125 C4.95394531 0.39951172 4.95394531 0.39951172 6.0546875 0.48828125 C8 1 8 1 10 4 C9.67 4.99 9.34 5.98 9 7 C7.4972763 6.02501855 5.99788037 5.04490611 4.5 4.0625 C3.6646875 3.51722656 2.829375 2.97195312 1.96875 2.41015625 C1.3190625 1.94480469 0.669375 1.47945312 0 1 C0 0.67 0 0.34 0 0 Z " fill="#D33842" transform="translate(182,227)"/>
<path d="M0 0 C1.65 0 3.3 0 5 0 C5 0.66 5 1.32 5 2 C6.32 2.33 7.64 2.66 9 3 C7.75 4.5625 7.75 4.5625 6 6 C3.8125 5.6875 3.8125 5.6875 2 5 C2 3.68 2 2.36 2 1 C1.34 0.67 0.68 0.34 0 0 Z " fill="#DE0815" transform="translate(163,208)"/>
<path d="M0 0 C1.12894876 0.93274109 2.25300876 1.87140122 3.375 2.8125 C4.00148437 3.33457031 4.62796875 3.85664063 5.2734375 4.39453125 C7 6 7 6 9 9 C7.35 8.67 5.7 8.34 4 8 C4 7.34 4 6.68 4 6 C3.01 5.67 2.02 5.34 1 5 C0.67 3.35 0.34 1.7 0 0 Z " fill="#DC5059" transform="translate(147,155)"/>
<path d="M0 0 C6.75 1.625 6.75 1.625 9 5 C8.34 5 7.68 5 7 5 C6.67 5.66 6.34 6.32 6 7 C5.67 6.34 5.34 5.68 5 5 C2.97536745 4.34786708 2.97536745 4.34786708 1 4 C0.67 2.68 0.34 1.36 0 0 Z " fill="#E13740" transform="translate(90,100)"/>
<path d="M0 0 C0.66 0 1.32 0 2 0 C2.33 1.98 2.66 3.96 3 6 C2.01 6.33 1.02 6.66 0 7 C-1.65 5.02 -3.3 3.04 -5 1 C-2.525 1.495 -2.525 1.495 0 2 C0 1.34 0 0.68 0 0 Z " fill="#3C3C3C" transform="translate(133,116)"/>
<path d="M0 0 C1.14926266 0.95421808 2.29430541 1.91352045 3.4375 2.875 C4.07558594 3.40867187 4.71367187 3.94234375 5.37109375 4.4921875 C7 6 7 6 8 8 C2.25 6.125 2.25 6.125 0 5 C0 3.35 0 1.7 0 0 Z " fill="#DC5D60" transform="translate(269,281)"/>
<path d="M0 0 C0 0.99 0 1.98 0 3 C-1.98 3.33 -3.96 3.66 -6 4 C-6 4.66 -6 5.32 -6 6 C-6.66 6 -7.32 6 -8 6 C-7.1875 3.5625 -7.1875 3.5625 -6 1 C-3 0 -3 0 0 0 Z " fill="#EE1C2A" transform="translate(104,281)"/>
<path d="M0 0 C1.65 1.65 3.3 3.3 5 5 C4.01 5.99 3.02 6.98 2 8 C0.4375 6.25 0.4375 6.25 -1 4 C-0.6875 1.75 -0.6875 1.75 0 0 Z " fill="#EB0814" transform="translate(246,263)"/>
<path d="M0 0 C0.66 0 1.32 0 2 0 C2 0.66 2 1.32 2 2 C3.98 2 5.96 2 8 2 C8.33 2.66 8.66 3.32 9 4 C5.2983569 4.94693195 3.60887535 5.30443767 0.125 3.5625 C-0.57625 3.046875 -1.2775 2.53125 -2 2 C-1.34 1.34 -0.68 0.68 0 0 Z " fill="#D20B16" transform="translate(183,224)"/>
<path d="M0 0 C3.36720387 1.39332574 4.9859524 2.9789286 7 6 C4.69 5.67 2.38 5.34 0 5 C0 3.35 0 1.7 0 0 Z " fill="#DA454D" transform="translate(203,214)"/>
<path d="M0 0 C3.63 2.31 7.26 4.62 11 7 C9.68 7.33 8.36 7.66 7 8 C5 6 5 6 4 4 C1.97536745 3.34786708 1.97536745 3.34786708 0 3 C0 2.01 0 1.02 0 0 Z " fill="#6C6C6C" transform="translate(101,78)"/>
<path d="M0 0 C1.17539996 0.92652701 2.34010577 1.86663387 3.5 2.8125 C4.1496875 3.33457031 4.799375 3.85664063 5.46875 4.39453125 C7 6 7 6 7 9 C6.67 8.34 6.34 7.68 6 7 C5.360625 6.9175 4.72125 6.835 4.0625 6.75 C3.381875 6.5025 2.70125 6.255 2 6 C0.75 2.9375 0.75 2.9375 0 0 Z " fill="#D6424C" transform="translate(139,147)"/>
<path d="M0 0 C2.31 1.98 4.62 3.96 7 6 C6.67 6.66 6.34 7.32 6 8 C3.36 6.02 0.72 4.04 -2 2 C-1.34 1.34 -0.68 0.68 0 0 Z " fill="#C47E88" transform="translate(283,296)"/>
<path d="M0 0 C1.17539996 0.92652701 2.34010577 1.86663387 3.5 2.8125 C4.1496875 3.33457031 4.799375 3.85664063 5.46875 4.39453125 C7 6 7 6 7 9 C3.46352496 7.32482761 2.2088437 6.50719183 0.6875 2.8125 C0.460625 1.884375 0.23375 0.95625 0 0 Z " fill="#DF555C" transform="translate(261,273)"/>
<path d="M0 0 C0.66 0 1.32 0 2 0 C2.66 0.66 3.32 1.32 4 2 C4.66 1.67 5.32 1.34 6 1 C6.66 1.66 7.32 2.32 8 3 C7.34 3.66 6.68 4.32 6 5 C4.68 5 3.36 5 2 5 C0.25 3 0.25 3 -1 1 C-0.67 0.67 -0.34 0.34 0 0 Z " fill="#D90710" transform="translate(207,240)"/>
<path d="M0 0 C-1.28913487 0.67154933 -2.58140204 1.33708859 -3.875 2 C-4.59429687 2.37125 -5.31359375 2.7425 -6.0546875 3.125 C-8 4 -8 4 -10 4 C-10 3.34 -10 2.68 -10 2 C-9.34 2 -8.68 2 -8 2 C-8 1.34 -8 0.68 -8 0 C-4.90645403 -0.99435406 -3.09720845 -0.87840996 0 0 Z " fill="#CE414A" transform="translate(106,285)"/>
<path d="M0 0 C6.57142857 5.14285714 6.57142857 5.14285714 8 9 C5.6875 8.875 5.6875 8.875 3 8 C0 3.13793103 0 3.13793103 0 0 Z " fill="#E16A74" transform="translate(253,264)"/>
<path d="M0 0 C2.375 0.25 2.375 0.25 5 1 C6.3125 3.0625 6.3125 3.0625 7 5 C4.69 4.34 2.38 3.68 0 3 C0 2.01 0 1.02 0 0 Z " fill="#CD0D1F" transform="translate(240,265)"/>
<path d="M0 0 C3.37503669 1.1858237 5.64722731 2.27573689 8 5 C5.69 4.67 3.38 4.34 1 4 C0.67 2.68 0.34 1.36 0 0 Z " fill="#404040" transform="translate(160,121)"/>
<path d="M0 0 C1.98 0.99 3.96 1.98 6 3 C5.34 4.32 4.68 5.64 4 7 C2.35 5.02 0.7 3.04 -1 1 C-0.67 0.67 -0.34 0.34 0 0 Z " fill="#404040" transform="translate(101,87)"/>
<path d="M0 0 C5.75 0.75 5.75 0.75 8 3 C7.67 3.66 7.34 4.32 7 5 C3.34683329 3.75023244 2.21934164 3.32901247 0 0 Z " fill="#D5404A" transform="translate(212,248)"/>
<path d="M0 0 C0.33 0.66 0.66 1.32 1 2 C1.99 2.33 2.98 2.66 4 3 C4.33 3.99 4.66 4.98 5 6 C4.01 6.33 3.02 6.66 2 7 C0.4375 5.1875 0.4375 5.1875 -1 3 C-0.67 2.01 -0.34 1.02 0 0 Z " fill="#353435" transform="translate(137,122)"/>
<path d="M0 0 C2.375 0.6875 2.375 0.6875 5 2 C6.3125 4.625 6.3125 4.625 7 7 C6.01 7 5.02 7 4 7 C4 5.68 4 4.36 4 3 C3.01 3 2.02 3 1 3 C0.67 2.01 0.34 1.02 0 0 Z " fill="#DD202E" transform="translate(80,89)"/>
<path d="M0 0 C0.66 0.66 1.32 1.32 2 2 C1.67 2.99 1.34 3.98 1 5 C0.01 5.33 -0.98 5.66 -2 6 C-2.66 5.01 -3.32 4.02 -4 3 C-2.68 2.01 -1.36 1.02 0 0 Z " fill="#1E1E1E" transform="translate(120,93)"/>
<path d="M0 0 C1.98 0.99 1.98 0.99 4 2 C3.01 2.495 3.01 2.495 2 3 C1.59270772 5.32156597 1.25561323 7.6568787 1 10 C0.67 10 0.34 10 0 10 C0 6.7 0 3.4 0 0 Z " fill="#DE7277" transform="translate(68,74)"/>
<path d="M0 0 C0.99 0.33 1.98 0.66 3 1 C3 1.99 3 2.98 3 4 C3.66 4.66 4.32 5.32 5 6 C3.35 6 1.7 6 0 6 C0 4.02 0 2.04 0 0 Z " fill="#E91F29" transform="translate(70,292)"/>
<path d="M0 0 C2.3431213 0.25561323 4.67843403 0.59270772 7 1 C7.33 1.66 7.66 2.32 8 3 C6.25 3.75 6.25 3.75 4 4 C1.75 2.0625 1.75 2.0625 0 0 Z " fill="#D03542" transform="translate(168,217)"/>
<path d="M0 0 C1.875 0.3125 1.875 0.3125 4 1 C4.66 1.99 5.32 2.98 6 4 C4.02 4 2.04 4 0 4 C0 2.68 0 1.36 0 0 Z " fill="#D9333A" transform="translate(192,204)"/>
<path d="M0 0 C2.475 0.495 2.475 0.495 5 1 C5.33 2.65 5.66 4.3 6 6 C3.97945196 4.35830472 1.97956942 2.69088222 0 1 C0 0.67 0 0.34 0 0 Z " fill="#4F4B4B" transform="translate(151,141)"/>
</svg>
